<?xml version="1.0" encoding="UTF-8"?>
<svg width="513.7" height="381.43" enable-background="new 0 0 510 510" version="1.1" viewBox="0 0 511.69 379.94" xmlns="http://www.w3.org/2000/svg" xmlns:cc="http://creativecommons.org/ns#" xmlns:dc="http://purl.org/dc/elements/1.1/" xmlns:osb="http://www.openswatchbook.org/uri/2009/osb" xmlns:rdf="http://www.w3.org/1999/02/22-rdf-syntax-ns#">
 <metadata>
  <rdf:RDF>
   <cc:Work rdf:about="">
    <dc:format>image/svg+xml</dc:format>
    <dc:type rdf:resource="http://purl.org/dc/dcmitype/StillImage"/>
    <dc:title/>
   </cc:Work>
  </rdf:RDF>
 </metadata>
 <g fill="#1d8de1" stroke="#1d8de1" stroke-width="1.0001">
  <path d="m43.061 300.83v-221.49c-15.916-0.51968-46.923-7.4361-42.05 17.82v249.08c7.765 18.507 35.353 7.7313 51.924 12.355 48.907 3.0535 97.93 7.8981 145.66 19.409-42.368-32.876-93.436-53.144-145.85-63.149-5.7205-2.0928-9.7545-7.9256-9.6756-14.02z"/>
  <path d="m468.96 77.524c-0.15655 75.316 0.31306 150.66-0.23473 225.96-10.356 22.036-43.521 13.381-62.326 25.251-33.349 11.311-65.06 27.736-92.97 49.27 61.58-14.874 125.07-18.533 188.12-21.78 13.961-2.6365 8.272-19.012 9.456-29.088v-239.98c-3.0103-18.003-30.132-6.8615-42.05-9.634z"/>
  <path d="m427.76 1.5049c-57.353 10.378-115.43 33.98-155.03 78.189-6.5238 7.0522-2.0151 18.07-3.3464 26.987v272.1c46.439-43.82 105.82-72.614 167.95-86.16v-281.12c0.13335-5.2083-4.3859-9.8763-9.5738-9.9921z"/>
  <path d="m86.628 0.50104c57.353 10.377 115.43 33.98 155.03 78.189 6.5238 7.0522 2.0151 18.07 3.3464 26.987v272.1c-46.439-43.82-105.82-72.614-167.95-86.16v-281.12c-0.13336-5.2083 4.3859-9.8763 9.5738-9.9921z"/>
 </g>
 <path d="m127.39 142.35 130.7 221.03 242.58-448.38" fill="none" stroke="#fff" stroke-linecap="round" stroke-width="39.844"/>
 <path d="m230.72 354.15c-38.168-76.617-76.337-153.23-114.5-229.85 41.424 55.212 82.848 110.42 124.27 165.64-19.747-75.837-39.493-151.67-59.24-227.51-23.991-2.8984-47.981-5.7968-71.972-8.6951-6.5866 38.957-13.173 77.914-19.76 116.87 47.068 61.183 94.136 122.37 141.2 183.55z" fill="#1d8de1"/>
</svg>
